:FULLY-SPECIFIED
:FORCE-ALL-JOINTS-BE-3DOF
:DEGREES
306
root -1.30244 15.4192 -36.2103 27.5506 70.7618 23.0961
lfemur -23.0381 14.4466 -21.4318
ltibia 61.2719 0 0
lfoot -28.0235 29.1402 0
ltoes -8.17789 0 0
rfemur -48.6797 -6.58297 12.1542
rtibia 90.9512 0 0
rfoot 5.03292 -5.77757 0
rtoes -17.9428 0 0
lowerback 16.5003 -2.18824 -10.0435
upperback -1.34427 -4.71112 1.93464
thorax -9.80514 -1.63957 8.98798
lowerneck -7.13672 3.47695 0.920646
upperneck 2.97766 4.80794 -4.69713
head 2.33411 2.27651 -1.4586
lclavicle 3.50216e-14 -1.44545e-14 0
lhumerus 3.14693 -12.7547 79.9004
lradius 70.1276 0 0
lwrist -20.028 0 0
lhand -24.8734 37.9649 0
lfingers 7.12502 0 0
lthumb 9.40085 71.8075 0
rclavicle -2.26957e-14 1.02272e-14 0
rhumerus -44.4739 3.35707 -82.5052
rradius 93.6416 0 0
rwrist -47.5958 0 0
rhand -10.4807 -41.6362 0
rfingers 7.12502 0 0
rthumb 28.9788 -37.3843 0
307
root -1.16394 15.4083 -36.1978 28.7552 70.7487 24.8541
lfemur -21.8799 13.7827 -21.2188
ltibia 60.4093 0 0
lfoot -28.0046 29.0082 0
ltoes -8.43801 0 0
rfemur -49.2909 -5.9719 11.9117
rtibia 92.5731 0 0
rfoot 5.25147 -5.12379 0
rtoes -17.0112 0 0
lowerback 16.8407 -1.66903 -10.5655
upperback -1.21366 -4.18645 1.60323
thorax -9.96337 -1.36042 8.82257
lowerneck -7.01516 3.0726 0.630953
upperneck 2.93353 4.28129 -4.49596
head 2.26605 2.01873 -1.36775
lclavicle 3.13796e-14 -1.41989e-14 0
lhumerus 2.16411 -14.6215 81.3664
lradius 67.7863 0 0
lwrist -22.3327 0 0
lhand -24.9866 37.3489 0
lfingers 7.12502 0 0
lthumb 9.20225 72.0921 0
rclavicle -2.18595e-14 9.40461e-15 0
rhumerus -40.7313 3.67682 -81.9037
rradius 93.1902 0 0
rwrist -47.2535 0 0
rhand -10.9868 -41.9612 0
rfingers 7.12502 0 0
rthumb 28.9687 -36.5722 0
308
root -1.01821 15.3922 -36.1866 28.9531 70.8167 25.9038
lfemur -20.7218 13.1188 -21.0058
ltibia 59.5468 0 0
lfoot -27.9858 28.8762 0
ltoes -8.69812 0 0
rfemur -49.9021 -5.36082 11.6691
rtibia 94.195 0 0
rfoot 5.47002 -4.47 0
rtoes -16.0796 0 0
lowerback 17.4245 -1.20823 -10.8434
upperback -1.00099 -3.70557 1.36184
thorax -10.1664 -1.1124 8.63466
lowerneck -6.81881 2.77332 0.253512
upperneck 2.88687 3.89805 -4.22765
head 2.18604 1.83389 -1.2339
lclavicle 2.77376e-14 -1.39433e-14 0
lhumerus 1.1813 -16.4883 82.8325
lradius 65.445 0 0
lwrist -24.6374 0 0
lhand -25.0997 36.7328 0
lfingers 7.12502 0 0
lthumb 9.00364 72.3767 0
rclavicle -2.10232e-14 8.58205e-15 0
rhumerus -36.9888 3.99656 -81.3023
rradius 92.7387 0 0
rwrist -46.9112 0 0
rhand -11.4929 -42.2862 0
rfingers 7.12502 0 0
rthumb 28.9586 -35.7601 0
309
root -0.871526 15.3772 -36.1717 29.1304 71.0279 27.1509
lfemur -19.5636 12.4549 -20.7929
ltibia 58.6842 0 0
lfoot -27.9669 28.7442 0
ltoes -8.95824 0 0
rfemur -50.5133 -4.74975 11.4265
rtibia 95.8169 0 0
rfoot 5.68857 -3.81622 0
rtoes -15.148 0 0
lowerback 18.1589 -0.700861 -11.1603
upperback -0.71245 -3.18563 1.13369
thorax -10.3731 -0.846022 8.47119
lowerneck -6.58612 2.42676 -0.0720245
upperneck 2.87965 3.44037 -3.84381
head 2.11243 1.61478 -1.07513
lclavicle 2.40956e-14 -1.36877e-14 0
lhumerus 0.198478 -18.355 84.2985
lradius 63.1037 0 0
lwrist -26.942 0 0
lhand -25.2128 36.1168 0
lfingers 7.12502 0 0
lthumb 8.80504 72.6613 0
rclavicle -2.01869e-14 7.75949e-15 0
rhumerus -33.2462 4.31631 -80.7008
rradius 92.2872 0 0
rwrist -46.5689 0 0
rhand -11.9989 -42.6112 0
rfingers 7.12502 0 0
rthumb 28.9484 -34.948 0
310
root -0.721835 15.3617 -36.1538 28.9953 71.4231 28.3115
lfemur -18.4054 11.791 -20.5799
ltibia 57.8217 0 0
lfoot -27.948 28.6122 0
ltoes -9.21836 0 0
rfemur -51.1244 -4.13867 11.184
rtibia 97.4388 0 0
rfoot 5.90712 -3.16243 0
rtoes -14.2164 0 0
lowerback 19.1104 -0.217413 -11.4631
upperback -0.333249 -2.70799 1.00557
thorax -10.5823 -0.600542 8.42082
lowerneck -6.52859 2.08233 -0.289046
upperneck 3.02378 2.98419 -3.48775
head 2.12763 1.39236 -0.942162
lclavicle 2.04536e-14 -1.34321e-14 0
lhumerus -0.784341 -20.2218 85.7645
lradius 60.7624 0 0
lwrist -29.2467 0 0
lhand -25.326 35.5008 0
lfingers 7.12502 0 0
lthumb 8.60643 72.9458 0
rclavicle -1.93507e-14 6.93693e-15 0
rhumerus -29.5036 4.63606 -80.0993
rradius 91.8357 0 0
rwrist -46.2266 0 0
rhand -12.505 -42.9362 0
rfingers 7.12502 0 0
rthumb 28.9383 -34.1359 0
311
root -0.568613 15.3463 -36.126 28.8257 72.0455 29.3448
lfemur -17.2473 11.1271 -20.367
ltibia 56.9591 0 0
lfoot -27.9292 28.4802 0
ltoes -9.47847 0 0
rfemur -51.7356 -3.5276 10.9414
rtibia 99.0607 0 0
rfoot 6.12567 -2.50865 0
rtoes -13.2848 0 0
lowerback 20.5175 0.214431 -11.2908
upperback -0.354421 -2.30051 0.749717
thorax -11.5146 -0.352814 7.9917
lowerneck -6.27414 1.65809 -0.534648
upperneck 3.50828 2.41151 -2.81345
head 2.21466 1.11666 -0.708694
lclavicle 1.68115e-14 -1.31766e-14 0
lhumerus -1.76716 -22.0886 87.2306
lradius 58.4211 0 0
lwrist -31.5514 0 0
lhand -25.4391 34.8848 0
lfingers 7.12502 0 0
lthumb 8.40783 73.2304 0
rclavicle -1.85144e-14 6.11437e-15 0
rhumerus -25.7611 4.9558 -79.4979
rradius 91.3843 0 0
rwrist -45.8843 0 0
rhand -13.011 -43.2612 0
rfingers 7.12502 0 0
rthumb 27.5078 -35.2168 0
312
root -0.411002 15.3321 -36.0888 29.0759 72.8709 30.5755
lfemur -16.0891 10.4632 -20.154
ltibia 56.0965 0 0
lfoot -27.9103 28.3482 0
ltoes -9.73859 0 0
rfemur -51.7483 -3.53673 10.4766
rtibia 96.822 0 0
rfoot 6.34421 -1.85486 0
rtoes -12.3532 0 0
lowerback 21.3139 0.499822 -11.4366
upperback -0.151326 -2.04203 0.719588
thorax -11.7828 -0.208258 7.99628
lowerneck -6.23068 1.33849 -0.641323
upperneck 3.73476 1.97645 -2.42048
head 2.2689 0.906559 -0.582246
lclavicle 1.31695e-14 -1.2921e-14 0
lhumerus -2.74998 -23.9554 88.6966
lradius 56.0798 0 0
lwrist -28.0684 0 0
lhand -25.5522 34.2687 0
lfingers 7.12502 0 0
lthumb 8.20923 73.515 0
rclavicle -1.76781e-14 5.29181e-15 0
rhumerus -22.0185 5.27555 -78.8964
rradius 90.9328 0 0
rwrist -45.542 0 0
rhand -13.5171 -43.5862 0
rfingers 7.12502 0 0
rthumb 26.0773 -36.2977 0
313
root -0.246683 15.3228 -36.0414 30.0996 74.0518 32.5001
lfemur -14.9309 9.79931 -19.941
ltibia 55.234 0 0
lfoot -27.8914 28.2162 0
ltoes -9.99871 0 0
rfemur -51.761 -3.54587 10.0119
rtibia 94.5832 0 0
rfoot 6.56276 -1.20108 0
rtoes -11.4215 0 0
lowerback 21.9761 0.742534 -11.8616
upperback 0.0495863 -1.8644 0.964405
thorax -11.9406 -0.0825177 8.49562
lowerneck -6.18987 0.977444 -1.10838
upperneck 3.91031 1.51016 -1.93569
head 2.30498 0.67943 -0.366012
lclavicle 9.52751e-15 -1.26654e-14 0
lhumerus -3.7328 -25.8222 90.1626
lradius 53.7385 0 0
lwrist -24.5853 0 0
lhand -25.6654 33.6527 0
lfingers 7.12502 0 0
lthumb 8.01062 73.7995 0
rclavicle -1.68419e-14 4.46926e-15 0
rhumerus -18.2759 5.5953 -78.295
rradius 90.4813 0 0
rwrist -45.1997 0 0
rhand -14.0231 -43.9112 0
rfingers 7.12502 0 0
rthumb 24.6468 -37.3786 0
314
root -0.0746233 15.3148 -35.9901 32.1768 75.3223 35.126
lfemur -13.7727 9.13542 -19.7281
ltibia 54.3714 0 0
lfoot -27.8726 28.0842 0
ltoes -10.2588 0 0
rfemur -51.7737 -3.555 9.54712
rtibia 92.3445 0 0
rfoot 6.78131 -0.547293 0
rtoes -10.4899 0 0
lowerback 22.3859 0.800883 -12.0213
upperback 0.0447938 -1.87253 1.0347
thorax -12.1682 -0.0539755 8.69098
lowerneck -5.97677 0.626301 -1.35873
upperneck 4.06685 1.03209 -1.4328
head 2.31022 0.451177 -0.182373
lclavicle 5.88549e-15 -1.24098e-14 0
lhumerus -4.71561 -27.689 91.6287
lradius 51.3972 0 0
lwrist -21.1023 0 0
lhand -25.7785 33.0367 0
lfingers 7.12502 0 0
lthumb 7.81202 74.0841 0
rclavicle -1.60056e-14 3.6467e-15 0
rhumerus -14.5333 5.91505 -77.6935
rradius 90.0298 0 0
rwrist -44.8574 0 0
rhand -14.5292 -44.2362 0
rfingers 7.12502 0 0
rthumb 23.2163 -38.4596 0
